PathFileType	4	(x/y/z)	S09_PSF_T03
DataRate	CameraRate	NumFrames	NumMarkers	Units	OrigDataRate	OrigDataStartFrame	OrigNumFrames
240	240	5	51	mm	240	289	461
Frame#	Time	Sternum			R.Acromium			L.Acromium			Top.Head			R.ASIS			L.ASIS			R.PSIS			L.PSIS			R.Great.Tro			L.Great.Tro			R.Iliac.Crest			L.Iliac.Crest			V.Sacral			R.Thigh.Upper.Post			R.Thigh.Lower.Ant			R.Thigh.Lower.Post			R.Thigh.Upper.Ant			R.Knee.Lat			R.Knee.Med			R.Shank.Upper.Post			R.Shank.Lower.Ant			R.Shank.Lower.Post			R.Shank.Upper.Ant			R.Ankle.Lat			R.Ankle.Med			R.Heel.Upper			R.Heel.Med			R.Heel.Lat			R.Toe.Lat			R.Toe.Med			R.Toe.Tip			L.Thigh.Upper.Post			L.Thigh.Lower.Ant			L.Thigh.Lower.Post			L.Thigh.Upper.Ant			L.Knee.Lat			L.Knee.Med			L.Shank.Upper.Post			L.Shank.Lower.Ant			L.Shank.Lower.Post			L.Shank.Upper.Ant			L.Ankle.Lat			L.Ankle.Med			L.Heel.Upper			L.Heel.Med			L.Heel.Lat			L.Toe.Lat			L.Toe.Med			L.Toe.Tip			Cervical.Spine			Back			
		X1	Y1	Z1	X2	Y2	Z2	X3	Y3	Z3	X4	Y4	Z4	X5	Y5	Z5	X6	Y6	Z6	X7	Y7	Z7	X8	Y8	Z8	X9	Y9	Z9	X10	Y10	Z10	X11	Y11	Z11	X12	Y12	Z12	X13	Y13	Z13	X14	Y14	Z14	X15	Y15	Z15	X16	Y16	Z16	X17	Y17	Z17	X18	Y18	Z18	X19	Y19	Z19	X20	Y20	Z20	X21	Y21	Z21	X22	Y22	Z22	X23	Y23	Z23	X24	Y24	Z24	X25	Y25	Z25	X26	Y26	Z26	X27	Y27	Z27	X28	Y28	Z28	X29	Y29	Z29	X30	Y30	Z30	X31	Y31	Z31	X32	Y32	Z32	X33	Y33	Z33	X34	Y34	Z34	X35	Y35	Z35	X36	Y36	Z36	X37	Y37	Z37	X38	Y38	Z38	X39	Y39	Z39	X40	Y40	Z40	X41	Y41	Z41	X42	Y42	Z42	X43	Y43	Z43	X44	Y44	Z44	X45	Y45	Z45	X46	Y46	Z46	X47	Y47	Z47	X48	Y48	Z48	X49	Y49	Z49	X50	Y50	Z50	X51	Y51	Z51	

289	1.2	46.424	1151.8	295.44	-85.567	1398.8	448.85	-102.66	1397.9	135.56	-82.828	1706.1	287.68	-14.626	981.42	411.84	0.27849	986.67	166.3	-229.43	1021.9	316.57	-217.16	1015.3	227.92	-118.11	907.27	480.37	-62.178	898.94	91.752	-101.2	1068	449.59	-106.3	1082.1	124.86	-244.87	985.09	268.15	-210.42	675.86	434.98	-175.36	557.47	396.61	-245.52	593.57	402.9	-148.6	639.32	428.11	-229.61	496.07	381.99	-230.73	493.82	259.63	-369.21	366.14	378.18	-331.68	283.94	362.82	-403.34	298.81	363.68	-304.71	351.52	379.12	-456.46	117.29	333.9	-426.95	124.41	244.97	-526.93	107.57	282.07	-521.8	74.118	253.87	-529.15	77.539	318.46	-375.1	40.13	372.21	-324.46	39.943	267.12	-275.63	44.891	314.66	-47.199	632.52	139.91	62.141	567.49	141.84	-3.6301	553.89	161.83	20.75	642.88	116.26	74.505	493.25	154.18	85.207	511.17	290.59	83.491	353.2	149.8	179.62	298.85	158.73	116.54	283.69	156.63	145.75	368.37	152.78	232.16	111.54	181.13	253.44	124.51	271.41	193.41	54.478	240.31	216.02	43.137	273.3	206.37	26.767	214.32	357.26	94.419	146.93	389.61	130.66	249.74	421.9	163.74	186.06	-169.08	1450.7	307.46	-218.09	1181.5	292.49
290	1.2042	52.488	1151	294.88	-79.825	1397.9	448.35	-96.943	1397.2	135.03	-77.364	1705.4	287.43	-8.3621	980.51	411.57	6.6192	986.41	166.03	-223.21	1021	316.33	-210.91	1014.6	227.66	-112.04	906.18	480.01	-55.308	898.67	91.482	-94.978	1067.1	449.34	-100.38	1081.6	124.64	-238.61	984.28	267.83	-204.56	674.93	434.46	-169.6	556.53	396.02	-239.74	592.69	402.31	-142.78	638.34	427.57	-224.1	495.14	381.48	-225.18	493	259.11	-365	366.72	377.95	-328.48	284.05	362.55	-399.88	299.74	363.53	-300.72	351.33	378.7	-455.28	118.82	334.1	-425.53	125.54	245.08	-525.85	109.72	282.18	-521.04	76.296	253.88	-528.39	79.585	318.49	-374.85	40.293	372.2	-324.14	40.005	267.19	-275.38	44.711	314.72	-39.964	632.27	140.04	69.526	567.5	142.62	3.6538	553.72	162.15	28.188	642.84	116.83	81.746	493.09	154.87	92.533	511.6	290.9	89.367	352.99	150.5	184.83	297.57	159.89	121.61	283.11	157.43	151.76	367.46	153.85	234.89	110.22	182.18	255.91	122.21	272.69	194.83	54.557	240.97	217.09	42.416	273.92	207.13	26.703	214.88	359.32	91.38	148.36	392.08	126.34	251.39	425.05	159.28	187.89	-163.36	1449.9	306.96	-212.13	1180.6	292.1
291	1.2083	58.579	1150.4	294.31	-74.077	1397	447.84	-91.202	1396.6	134.48	-71.906	1704.8	287.17	-2.0439	979.65	411.28	12.985	986.21	165.76	-216.94	1020.1	316.1	-204.63	1013.9	227.41	-105.9	905.12	479.64	-48.392	898.45	91.213	-88.693	1066.2	449.09	-94.418	1081.2	124.41	-232.32	983.53	267.52	-198.59	674.01	433.91	-163.7	555.6	395.4	-233.81	591.8	401.7	-136.83	637.38	427	-218.43	494.21	380.97	-219.48	492.18	258.58	-360.65	367.34	377.73	-325.16	284.2	362.29	-396.29	300.74	363.4	-296.61	351.16	378.29	-454	120.43	334.33	-423.99	126.75	245.22	-524.66	112.02	282.3	-520.18	78.633	253.88	-527.55	81.778	318.51	-374.59	40.48	372.18	-323.79	40.068	267.27	-275.14	44.538	314.78	-32.76	632.11	140.13	76.844	567.54	143.36	10.871	553.61	162.43	35.587	642.85	117.37	88.925	492.98	155.49	99.729	512.01	291.19	95.259	352.85	151.13	190.07	296.4	160.99	126.71	282.61	158.15	157.78	366.65	154.86	237.63	109.01	183.13	258.38	120.01	273.88	196.2	54.789	241.54	218.1	41.815	274.45	207.81	26.791	215.34	361.33	88.355	149.72	394.51	121.97	252.98	428.2	154.74	189.67	-157.63	1449.1	306.44	-206.14	1179.8	291.71
292	1.2125	64.697	1149.7	293.73	-68.325	1396.2	447.32	-85.44	1396	133.94	-66.453	1704.2	286.91	4.3242	978.84	410.97	19.373	986.08	165.48	-210.63	1019.3	315.89	-198.31	1013.3	227.18	-99.698	904.09	479.25	-41.433	898.3	90.941	-82.35	1065.4	448.84	-88.41	1080.9	124.17	-226	982.83	267.22	-192.5	673.08	433.32	-157.63	554.68	394.77	-227.73	590.91	401.05	-130.74	636.43	426.41	-212.6	493.28	380.47	-213.62	491.36	258.04	-356.15	368	377.52	-321.71	284.4	362.07	-392.55	301.79	363.27	-292.36	351.01	377.9	-452.61	122.14	334.57	-422.34	128.05	245.39	-523.34	114.48	282.42	-519.22	81.137	253.88	-526.62	84.128	318.53	-374.31	40.691	372.16	-323.42	40.132	267.34	-274.89	44.371	314.84	-25.595	632.02	140.19	84.09	567.63	144.06	18.014	553.56	162.66	42.937	642.92	117.88	96.041	492.94	156.05	106.78	512.43	291.45	101.17	352.8	151.69	195.34	295.35	162.02	131.86	282.22	158.8	163.81	365.94	155.81	240.37	107.92	183.99	260.84	117.91	274.98	197.54	55.16	242.02	219.05	41.337	274.9	208.43	27.016	215.71	363.29	85.358	151.02	396.92	117.57	254.49	431.37	150.13	191.38	-151.9	1448.4	305.92	-200.14	1179	291.31
293	1.2167	70.843	1149.1	293.14	-62.567	1395.4	446.8	-79.658	1395.4	133.38	-61.005	1703.6	286.65	10.737	978.08	410.65	25.776	986.02	165.2	-204.28	1018.6	315.7	-191.97	1012.8	226.96	-93.433	903.09	478.87	-34.438	898.23	90.666	-75.954	1064.6	448.59	-82.353	1080.6	123.93	-219.64	982.18	266.94	-186.27	672.17	432.71	-151.4	553.77	394.13	-221.5	590.01	400.39	-124.52	635.51	425.79	-206.58	492.34	379.97	-207.6	490.54	257.51	-351.49	368.7	377.33	-318.1	284.64	361.87	-388.66	302.9	363.16	-287.97	350.89	377.52	-451.12	123.94	334.84	-420.57	129.44	245.59	-521.88	117.1	282.56	-518.14	83.815	253.87	-525.59	86.64	318.55	-374	40.93	372.13	-323.02	40.197	267.43	-274.65	44.21	314.9	-18.474	632.02	140.19	91.26	567.75	144.71	25.08	553.58	162.84	50.231	643.05	118.34	103.1	492.96	156.54	113.67	512.84	291.69	107.11	352.83	152.18	200.63	294.42	162.98	137.05	281.93	159.37	169.85	365.34	156.68	243.12	106.94	184.76	263.3	115.94	275.97	198.85	55.65	242.4	219.95	40.98	275.26	209.02	27.362	215.99	365.22	82.403	152.25	399.28	113.17	255.93	434.52	145.48	193.02	-146.16	1447.8	305.38	-194.12	1178.2	290.92
